<svg xmlns="http://www.w3.org/2000/svg" viewBox="0 0 512.03 505.85" id="list-check"><g data-name="Layer 2"><path d="M37.55 78A10 10 0 0130.48 75L3.11 47.65A10 10 0 0117.25 33.51L37.55 53.8 88.42 2.93a10 10 0 1114.15 14.14L44.62 75A10 10 0 0137.55 78zM41 363.22h0a10 10 0 01-7.09-3l-31-31.53a10 10 0 1114.28-14L41 339 97 283.07a10 10 0 1114.14 14.15L48 360.29A10 10 0 0141 363.22zM42.67 220.58a10 10 0 01-7.07-2.93L4.07 186.12A10 10 0 0118.21 172l24.46 24.47 56-56a10 10 0 1114.15 14.14L49.75 217.65A10 10 0 0142.67 220.58zM39.26 505.85h0a10 10 0 01-7.07-2.93L2.94 473.68a10 10 0 0114.15-14.14l22.17 22.17 56-56a10 10 0 1114.14 14.14L46.33 502.92A10 10 0 0139.26 505.85zM501.44 46.41H141a10 10 0 010-20H501.44a10 10 0 110 20zM501.44 189.05H141a10 10 0 010-20H501.44a10 10 0 010 20zM501.44 331.68H141a10 10 0 010-20H501.44a10 10 0 010 20zM502 474.31H141a10 10 0 010-20H502a10 10 0 010 20z" data-name="list check"></path></g></svg>